<!-- <?xml version="1.0" ?><!DOCTYPE svg  PUBLIC '-//W3C//DTD SVG 1.1//EN'  'http://www.w3.org/Graphics/SVG/1.1/DTD/svg11.dtd'><svg enable-background="new 0 0 100 100" height="100px" id="Layer_1" version="1.1" viewBox="0 0 100 100" width="100px" xml:space="preserve" xmlns="http://www.w3.org/2000/svg" xmlns:xlink="http://www.w3.org/1999/xlink"><g><circle cx="50" cy="49.999" r="45"/><path d="M69.072,43.972c-0.004-0.025-0.01-0.047-0.014-0.072c-0.008-0.047-0.015-0.092-0.028-0.137   c-0.008-0.027-0.018-0.053-0.026-0.08c-0.014-0.041-0.025-0.08-0.039-0.119c-0.013-0.027-0.026-0.055-0.04-0.08   c-0.015-0.037-0.032-0.074-0.057-0.109c-0.012-0.025-0.029-0.051-0.046-0.076c-0.021-0.033-0.044-0.068-0.069-0.1   c-0.019-0.023-0.034-0.047-0.055-0.07c-0.027-0.031-0.054-0.061-0.084-0.09c-0.021-0.021-0.042-0.043-0.063-0.064   c-0.03-0.025-0.062-0.053-0.092-0.076c-0.026-0.02-0.051-0.039-0.074-0.057c-0.01-0.006-0.019-0.016-0.028-0.02L50.911,31.19   c-0.552-0.368-1.27-0.368-1.821,0L31.646,42.821c-0.01,0.004-0.018,0.014-0.027,0.02c-0.026,0.018-0.048,0.037-0.074,0.057   c-0.032,0.023-0.062,0.051-0.092,0.076c-0.024,0.021-0.044,0.043-0.066,0.064c-0.03,0.029-0.056,0.059-0.082,0.09   c-0.02,0.023-0.04,0.047-0.056,0.07c-0.024,0.031-0.048,0.066-0.07,0.1c-0.016,0.025-0.031,0.051-0.048,0.076   c-0.018,0.035-0.036,0.072-0.054,0.109c-0.012,0.025-0.026,0.053-0.036,0.08c-0.016,0.039-0.03,0.078-0.044,0.119   c-0.008,0.027-0.018,0.053-0.024,0.08c-0.012,0.045-0.02,0.09-0.027,0.137c-0.006,0.025-0.013,0.047-0.015,0.072   c-0.01,0.068-0.016,0.141-0.016,0.213v11.631c0,0.072,0.006,0.143,0.016,0.215c0.002,0.021,0.009,0.047,0.015,0.07   c0.008,0.047,0.016,0.092,0.027,0.137c0.007,0.027,0.017,0.055,0.024,0.08c0.014,0.039,0.028,0.08,0.044,0.121   c0.01,0.025,0.024,0.053,0.036,0.078c0.018,0.037,0.036,0.072,0.054,0.109c0.017,0.025,0.032,0.051,0.048,0.076   c0.022,0.033,0.046,0.066,0.07,0.098c0.016,0.025,0.036,0.049,0.056,0.072c0.026,0.029,0.052,0.061,0.082,0.088   c0.022,0.023,0.042,0.045,0.066,0.064c0.029,0.027,0.06,0.055,0.092,0.078c0.026,0.02,0.048,0.039,0.074,0.057   c0.01,0.006,0.018,0.016,0.027,0.021L49.09,68.81c0.275,0.186,0.594,0.275,0.911,0.275c0.318,0,0.636-0.09,0.91-0.275   l17.445-11.629c0.01-0.006,0.019-0.016,0.028-0.021c0.023-0.018,0.048-0.037,0.074-0.057c0.029-0.023,0.062-0.051,0.092-0.078   c0.021-0.02,0.042-0.041,0.063-0.064c0.03-0.027,0.057-0.059,0.084-0.088c0.021-0.023,0.036-0.047,0.055-0.072   c0.025-0.031,0.048-0.064,0.069-0.098c0.017-0.025,0.034-0.051,0.046-0.076c0.024-0.037,0.042-0.072,0.057-0.109   c0.014-0.025,0.027-0.053,0.04-0.078c0.014-0.041,0.025-0.082,0.039-0.121c0.009-0.025,0.019-0.053,0.026-0.08   c0.014-0.045,0.021-0.09,0.028-0.137c0.004-0.023,0.01-0.049,0.014-0.07c0.008-0.072,0.014-0.143,0.014-0.215V44.185   C69.086,44.112,69.08,44.04,69.072,43.972z M51.641,35.62l12.852,8.568l-5.741,3.838l-7.11-4.758V35.62z M48.362,35.62v7.648   l-7.113,4.758l-5.741-3.838L48.362,35.62z M34.196,47.255l4.103,2.744l-4.103,2.746V47.255z M48.362,64.38l-12.854-8.566   l5.741-3.84l7.113,4.756V64.38z M50.001,53.882L44.2,49.999l5.801-3.879l5.802,3.879L50.001,53.882z M51.641,64.38v-7.65   l7.11-4.756l5.741,3.84L51.641,64.38z M65.806,52.745l-4.102-2.746l4.102-2.744V52.745z" fill="#FFFFFF" id="Codepen_1_"/></g></svg> -->


<svg width="90px" height="91px" viewBox="0 0 90 91" version="1.1" xmlns="http://www.w3.org/2000/svg" xmlns:xlink="http://www.w3.org/1999/xlink">
    <!-- Generator: Sketch 3.8.1 (29687) - http://www.bohemiancoding.com/sketch -->
    <desc>Created with Sketch.</desc>
    <defs></defs>
    <g id="Group" stroke="none" stroke-width="1" fill="none" fill-rule="evenodd">
        <circle id="Oval" fill="#ffffff" cx="45" cy="45.999" r="45"></circle>
        <path d="M64.072,39.972 C64.068,39.947 64.062,39.925 64.058,39.9 C64.05,39.853 64.043,39.808 64.03,39.763 C64.022,39.736 64.012,39.71 64.004,39.683 C63.99,39.642 63.979,39.603 63.965,39.564 C63.952,39.537 63.939,39.509 63.925,39.484 C63.91,39.447 63.893,39.41 63.868,39.375 C63.856,39.35 63.839,39.324 63.822,39.299 C63.801,39.266 63.778,39.231 63.753,39.199 C63.734,39.176 63.719,39.152 63.698,39.129 C63.671,39.098 63.644,39.068 63.614,39.039 C63.593,39.018 63.572,38.996 63.551,38.975 C63.521,38.95 63.489,38.922 63.459,38.899 C63.433,38.879 63.408,38.86 63.385,38.842 C63.375,38.836 63.366,38.826 63.357,38.822 L45.911,27.19 C45.359,26.822 44.641,26.822 44.09,27.19 L26.646,38.821 C26.636,38.825 26.628,38.835 26.619,38.841 C26.593,38.859 26.571,38.878 26.545,38.898 C26.513,38.921 26.483,38.949 26.453,38.974 C26.429,38.995 26.409,39.017 26.387,39.038 C26.357,39.067 26.331,39.097 26.305,39.128 C26.285,39.151 26.265,39.175 26.249,39.198 C26.225,39.229 26.201,39.264 26.179,39.298 C26.163,39.323 26.148,39.349 26.131,39.374 C26.113,39.409 26.095,39.446 26.077,39.483 C26.065,39.508 26.051,39.536 26.041,39.563 C26.025,39.602 26.011,39.641 25.997,39.682 C25.989,39.709 25.979,39.735 25.973,39.762 C25.961,39.807 25.953,39.852 25.946,39.899 C25.94,39.924 25.933,39.946 25.931,39.971 C25.921,40.039 25.915,40.112 25.915,40.184 L25.915,51.815 C25.915,51.887 25.921,51.958 25.931,52.03 C25.933,52.051 25.94,52.077 25.946,52.1 C25.954,52.147 25.962,52.192 25.973,52.237 C25.98,52.264 25.99,52.292 25.997,52.317 C26.011,52.356 26.025,52.397 26.041,52.438 C26.051,52.463 26.065,52.491 26.077,52.516 C26.095,52.553 26.113,52.588 26.131,52.625 C26.148,52.65 26.163,52.676 26.179,52.701 C26.201,52.734 26.225,52.767 26.249,52.799 C26.265,52.824 26.285,52.848 26.305,52.871 C26.331,52.9 26.357,52.932 26.387,52.959 C26.409,52.982 26.429,53.004 26.453,53.023 C26.482,53.05 26.513,53.078 26.545,53.101 C26.571,53.121 26.593,53.14 26.619,53.158 C26.629,53.164 26.637,53.174 26.646,53.179 L44.09,64.81 C44.365,64.996 44.684,65.085 45.001,65.085 C45.319,65.085 45.637,64.995 45.911,64.81 L63.356,53.181 C63.366,53.175 63.375,53.165 63.384,53.16 C63.407,53.142 63.432,53.123 63.458,53.103 C63.487,53.08 63.52,53.052 63.55,53.025 C63.571,53.005 63.592,52.984 63.613,52.961 C63.643,52.934 63.67,52.902 63.697,52.873 C63.718,52.85 63.733,52.826 63.752,52.801 C63.777,52.77 63.8,52.737 63.821,52.703 C63.838,52.678 63.855,52.652 63.867,52.627 C63.891,52.59 63.909,52.555 63.924,52.518 C63.938,52.493 63.951,52.465 63.964,52.44 C63.978,52.399 63.989,52.358 64.003,52.319 C64.012,52.294 64.022,52.266 64.029,52.239 C64.043,52.194 64.05,52.149 64.057,52.102 C64.061,52.079 64.067,52.053 64.071,52.032 C64.079,51.96 64.085,51.889 64.085,51.817 L64.085,40.185 C64.086,40.112 64.08,40.04 64.072,39.972 L64.072,39.972 Z M46.641,31.62 L59.493,40.188 L53.752,44.026 L46.642,39.268 L46.642,31.62 L46.641,31.62 Z M43.362,31.62 L43.362,39.268 L36.249,44.026 L30.508,40.188 L43.362,31.62 L43.362,31.62 Z M29.196,43.255 L33.299,45.999 L29.196,48.745 L29.196,43.255 L29.196,43.255 Z M43.362,60.38 L30.508,51.814 L36.249,47.974 L43.362,52.73 L43.362,60.38 L43.362,60.38 Z M45.001,49.882 L39.2,45.999 L45.001,42.12 L50.803,45.999 L45.001,49.882 L45.001,49.882 Z M46.641,60.38 L46.641,52.73 L53.751,47.974 L59.492,51.814 L46.641,60.38 L46.641,60.38 Z M60.806,48.745 L56.704,45.999 L60.806,43.255 L60.806,48.745 L60.806,48.745 Z" id="Codepen_1_" fill="#2c3e50"></path>
    </g>
</svg>
