<?xml version="1.0" encoding="utf-8"?>
<!-- Generator: Adobe Illustrator 21.0.0, SVG Export Plug-In . SVG Version: 6.00 Build 0)  -->
<svg version="1.1" id="Layer_1" xmlns="http://www.w3.org/2000/svg" xmlns:xlink="http://www.w3.org/1999/xlink" x="0px" y="0px"
	 viewBox="0 0 300 300" style="enable-background:new 0 0 300 300;" xml:space="preserve">
<style type="text/css">
	.st0{fill:#FFFFFF;}
</style>
<g>
	<path class="st0" d="M242.4,1.7c15.3,0,28.4,5.4,39.2,16.3c10.9,10.9,16.3,24,16.3,39.3v185.3c0,15.3-5.4,28.4-16.3,39.3
		c-10.9,10.9-23.9,16.3-39.2,16.3h-36.2V183.3h38.4l5.8-44.8h-44.1v-28.6c0-7.2,1.5-12.6,4.5-16.2c3-3.6,8.9-5.4,17.6-5.4l23.5-0.2
		V48.2c-8.1-1.2-19.5-1.7-34.3-1.7c-17.5,0-31.5,5.1-41.9,15.4c-10.5,10.3-15.7,24.8-15.7,43.6v33h-38.5v44.8h38.5v114.8H57.4
		c-15.3,0-28.4-5.4-39.2-16.3c-10.9-10.9-16.3-24-16.3-39.3V57.2c0-15.3,5.4-28.4,16.3-39.3C29,7.1,42.1,1.7,57.4,1.7H242.4z"/>
</g>
</svg>
