<!-- <?xml version="1.0" ?><!DOCTYPE svg  PUBLIC '-//W3C//DTD SVG 1.0//EN'  'http://www.w3.org/TR/2001/REC-SVG-20010904/DTD/svg10.dtd'><svg enable-background="new 0 0 32 32" height="32px" id="Layer_1" version="1.0" viewBox="0 0 32 32" width="32px" xml:space="preserve" xmlns="http://www.w3.org/2000/svg" xmlns:xlink="http://www.w3.org/1999/xlink"><path clip-rule="evenodd" d="M16.003,0C7.17,0,0.008,7.162,0.008,15.997  c0,7.067,4.582,13.063,10.94,15.179c0.8,0.146,1.052-0.328,1.052-0.752c0-0.38,0.008-1.442,0-2.777  c-4.449,0.967-5.371-2.107-5.371-2.107c-0.727-1.848-1.775-2.34-1.775-2.34c-1.452-0.992,0.109-0.973,0.109-0.973  c1.605,0.113,2.451,1.649,2.451,1.649c1.427,2.443,3.743,1.737,4.654,1.329c0.146-1.034,0.56-1.739,1.017-2.139  c-3.552-0.404-7.286-1.776-7.286-7.906c0-1.747,0.623-3.174,1.646-4.292C7.28,10.464,6.73,8.837,7.602,6.634  c0,0,1.343-0.43,4.398,1.641c1.276-0.355,2.645-0.532,4.005-0.538c1.359,0.006,2.727,0.183,4.005,0.538  c3.055-2.07,4.396-1.641,4.396-1.641c0.872,2.203,0.323,3.83,0.159,4.234c1.023,1.118,1.644,2.545,1.644,4.292  c0,6.146-3.74,7.498-7.304,7.893C19.479,23.548,20,24.508,20,26c0,2,0,3.902,0,4.428c0,0.428,0.258,0.901,1.07,0.746  C27.422,29.055,32,23.062,32,15.997C32,7.162,24.838,0,16.003,0z" fill="#181616" fill-rule="evenodd"/><g/><g/><g/><g/><g/><g/></svg -->


<svg width="32px" height="32px" viewBox="0 0 32 32" version="1.1" xmlns="http://www.w3.org/2000/svg" xmlns:xlink="http://www.w3.org/1999/xlink">
    <!-- Generator: Sketch 3.8.1 (29687) - http://www.bohemiancoding.com/sketch -->
    <g id="github-icon-white" stroke="none" stroke-width="1" fill="none" fill-rule="evenodd">
        <path d="M16.003,0 C7.17,0 0.008,7.162 0.008,15.997 C0.008,23.064 4.59,29.06 10.948,31.176 C11.748,31.322 12,30.848 12,30.424 C12,30.044 12.008,28.982 12,27.647 C7.551,28.614 6.629,25.54 6.629,25.54 C5.902,23.692 4.854,23.2 4.854,23.2 C3.402,22.208 4.963,22.227 4.963,22.227 C6.568,22.34 7.414,23.876 7.414,23.876 C8.841,26.319 11.157,25.613 12.068,25.205 C12.214,24.171 12.628,23.466 13.085,23.066 C9.533,22.662 5.799,21.29 5.799,15.16 C5.799,13.413 6.422,11.986 7.445,10.868 C7.28,10.464 6.73,8.837 7.602,6.634 C7.602,6.634 8.945,6.204 12,8.275 C13.276,7.92 14.645,7.743 16.005,7.737 C17.364,7.743 18.732,7.92 20.01,8.275 C23.065,6.205 24.406,6.634 24.406,6.634 C25.278,8.837 24.729,10.464 24.565,10.868 C25.588,11.986 26.209,13.413 26.209,15.16 C26.209,21.306 22.469,22.658 18.905,23.053 C19.479,23.548 20,24.508 20,26 L20,30.428 C20,30.856 20.258,31.329 21.07,31.174 C27.422,29.055 32,23.062 32,15.997 C32,7.162 24.838,0 16.003,0 L16.003,0 Z" id="Shape" fill="#FFFFFF"></path>
    </g>
</svg>
