<?xml version="1.0" encoding="utf-8"?>
<!-- Generator: Adobe Illustrator 21.0.0, SVG Export Plug-In . SVG Version: 6.00 Build 0)  -->
<svg version="1.1" id="Layer_1" xmlns="http://www.w3.org/2000/svg" xmlns:xlink="http://www.w3.org/1999/xlink" x="0px" y="0px"
	 viewBox="0 0 300 300" style="enable-background:new 0 0 300 300;" xml:space="preserve">
<style type="text/css">
	.st0{fill:#FFFFFF;}
</style>
<g>
	<path class="st0" d="M298.6,57.9v185.2c0,15.3-5.4,28.4-16.3,39.3c-10.9,10.9-24,16.3-39.3,16.3H57.8c-15.3,0-28.4-5.4-39.3-16.3
		c-10.9-10.9-16.3-24-16.3-39.3V57.9c0-15.3,5.4-28.4,16.3-39.3C29.4,7.8,42.5,2.4,57.8,2.4H243c15.3,0,28.4,5.4,39.3,16.3
		C293.1,29.6,298.6,42.6,298.6,57.9z M95.4,75.3c-0.1-6.7-2.4-12.2-6.9-16.6C84,54.3,78,52.2,70.6,52.2c-7.5,0-13.5,2.2-18.2,6.6
		c-4.7,4.4-7,9.9-7,16.6c0,6.6,2.3,12.1,6.8,16.5c4.6,4.4,10.5,6.7,17.8,6.7h0.2c7.6,0,13.7-2.2,18.3-6.7
		C93.1,87.4,95.4,81.9,95.4,75.3z M48,250.5h44.6V116.6H48V250.5z M208.3,250.5h44.6v-76.8c0-19.8-4.7-34.8-14.1-44.9
		c-9.4-10.2-21.8-15.2-37.2-15.2c-17.5,0-30.9,7.5-40.3,22.6h0.4v-19.5h-44.6c0.4,8.5,0.4,53.1,0,133.9h44.6v-74.8
		c0-4.9,0.5-8.5,1.4-10.8c1.9-4.5,4.8-8.3,8.7-11.5c3.9-3.2,8.6-4.7,14.3-4.7c14.9,0,22.4,10.1,22.4,30.3V250.5z"/>
</g>
</svg>
